<?xml version="1.0" encoding="UTF-8"?>
<svg version="1.1" xmlns="http://www.w3.org/2000/svg" width="3840" height="1920">
<path d="M0 0 C1267.2 0 2534.4 0 3840 0 C3840 633.6 3840 1267.2 3840 1920 C2572.8 1920 1305.6 1920 0 1920 C0 1286.4 0 652.8 0 0 Z " fill="#012169" transform="translate(0,0)"/>
<path d="M0 0 C633.6 0 1267.2 0 1920 0 C1920 35.64 1920 71.28 1920 108 C1711.11 212.445 1711.11 212.445 1498 319 C1637.26 319.33 1776.52 319.66 1920 320 C1920 425.6 1920 531.2 1920 640 C1780.74 640.33 1641.48 640.66 1498 641 C1637.26 710.63 1776.52 780.26 1920 852 C1920 863.88 1920 875.76 1920 888 C1913.25037736 885.75012579 1913.25037736 885.75012579 1910.27515882 884.18065584 C1909.59542838 883.82497404 1908.91569794 883.46929224 1908.21536961 883.1028322 C1907.48530692 882.71502159 1906.75524423 882.32721099 1906.00305843 881.92764854 C1905.21107537 881.5116893 1904.4190923 881.09573006 1903.60310975 880.66716599 C1901.86554267 879.75386396 1900.12906692 878.83848344 1898.39354473 877.92130153 C1895.54703783 876.41715492 1892.69762682 874.91864011 1889.84746224 873.42143691 C1885.65343283 871.21775847 1881.46052564 869.01196568 1877.2684288 866.80461311 C1865.59672603 860.66047666 1853.91400949 854.53734096 1842.22862244 848.41928101 C1841.60946063 848.09506839 1840.99029882 847.77085577 1840.35237453 847.43681852 C1820.02875079 836.79569177 1799.66360642 826.23708582 1779.26490784 815.7406311 C1778.59404923 815.39539432 1777.92319063 815.05015754 1777.23200298 814.69445903 C1763.34804806 807.54987681 1749.45901638 800.41521004 1735.56384658 793.29246375 C1727.68860582 789.25552459 1719.81478184 785.2158306 1711.94213867 781.17382812 C1710.87363081 780.62532209 1710.87363081 780.62532209 1709.78353693 780.06573513 C1686.96162595 768.34874114 1664.23875383 756.45378012 1641.56284895 744.45700349 C1618.11200783 732.05154925 1594.56550459 719.84841394 1570.89477236 707.86747139 C1567.49998326 706.14908305 1564.10628142 704.42855792 1560.71324348 702.70671463 C1560.0458854 702.36813576 1559.37852731 702.0295569 1558.69094625 701.68071806 C1549.51467293 697.0192842 1540.41438593 692.23445377 1531.36345516 687.3343625 C1527.57163136 685.28613182 1523.76915079 683.25769283 1519.96756797 681.22764613 C1517.06966338 679.67708518 1514.18421084 678.11077379 1511.31245697 676.51190861 C1431.85338343 632.28564768 1380.00054999 641 1283 641 C1597.82 798.41 1597.82 798.41 1919 959 C1919 959.33 1919 959.66 1919 960 C1830.15843982 974.46632989 1738.95350159 977.05713376 1555.25390625 896.125 C1553.64566313 895.31782371 1552.03740868 894.51067001 1550.42914289 893.70353889 C1511.07890608 873.94077297 1472.13176815 853.4381927 1433.34323208 832.59805632 C1408.23551484 819.10834396 1383.02301576 805.83968147 1357.70141602 792.75585938 C1355.97959266 791.86585385 1354.25777213 790.97584285 1352.53595442 790.0858264 C1338.52545176 782.84498374 1324.50833585 775.61696633 1310.48962746 768.39202601 C1246.68289613 735.49593352 1183.40167458 701.69443865 1120 668 C1120 764.36 1120 860.72 1120 960 C1014.4 960 908.8 960 800 960 C800 863.64 800 767.28 800 668 C758.6778125 689.07875 717.355625 710.1575 674.78125 731.875 C650.07358386 744.4018688 625.36520266 756.92654576 600.63810253 769.41488743 C586.11828001 776.74826348 571.59914021 784.08298845 557.08210593 791.42188281 C555.326713 792.30929393 553.57129857 793.19666251 551.81586236 794.08398801 C523.95722032 808.16621882 496.1469617 822.34094613 468.36109243 836.56615373 C439.74224729 851.21717602 411.0757175 865.77047955 382.34799666 880.20694131 C378.26667564 882.25797151 374.18589901 884.31008263 370.10545349 886.362854 C369.30254807 886.76673394 368.49964264 887.17061388 367.67240675 887.58673261 C354.88094168 894.02458816 342.14189905 900.55990364 329.42081773 907.13554436 C316.5502045 913.78571027 303.62743 920.32442871 290.6489411 926.76157904 C283.64897595 930.23700925 276.67803335 933.75105603 269.77003479 937.4063797 C227.48036441 959.73794613 191.57338176 963.70241676 144 960 C146.73278856 957.84955216 149.44075293 956.15480975 152.54919648 954.60120326 C153.92155975 953.91165069 153.92155975 953.91165069 155.32164752 953.20816776 C156.82680492 952.45952958 156.82680492 952.45952958 158.36236954 951.6957674 C159.43403708 951.15877979 160.50570463 950.62179217 161.60984695 950.0685322 C164.595345 948.57358642 167.58260321 947.08226318 170.57064368 945.59241197 C173.81693243 943.9726983 177.06090001 942.34834787 180.30516028 940.72457618 C185.99482148 937.8776701 191.68596558 935.03374654 197.37808228 932.19175339 C205.84208262 927.96578128 214.30379087 923.73523554 222.76502973 919.50373767 C236.99734066 912.38626736 251.23151294 905.27252715 265.46674347 898.16089821 C279.56492659 891.11772017 293.66228376 884.0728933 307.75853729 877.02585411 C308.6344335 876.58797475 309.5103297 876.15009538 310.41276822 875.69894695 C314.86085252 873.47524313 319.30892204 871.25150975 323.75698587 869.027765 C355.27682131 853.26994866 386.79851061 837.51584406 418.32128906 821.76391602 C448.9485294 806.45947764 479.57493054 791.15336198 510.20019531 775.8449707 C511.14391254 775.37324361 512.08762978 774.90151652 513.0599445 774.41549467 C522.53699032 769.67829026 532.01401907 764.9410517 541.49103532 760.20378812 C560.79745246 750.55311589 580.10398353 740.9026716 599.4105835 731.25236511 C600.29830334 730.80864248 601.18602318 730.36491985 602.10064362 729.90775108 C661.39852081 700.26801584 720.69905397 670.63359477 780 641 C702.35720124 632.46813162 635.43424107 635.78488842 564.44238281 670.28320312 C563.6607392 670.66241213 562.87909559 671.04162114 562.07376581 671.43232132 C542.32973293 681.02781663 522.85115951 691.11341315 503.4635737 701.40699397 C490.63140977 708.22004043 477.73515121 714.89134582 464.76912689 721.44606018 C463.45714914 722.10942711 463.45714914 722.10942711 462.1186668 722.7861954 C457.6722363 725.03364383 453.2247454 727.2789853 448.77684268 729.52351838 C417.67833322 745.22132163 386.71733432 761.17320082 355.83496094 777.29150391 C325.92927673 792.89924812 295.96404424 808.38218404 265.91308594 823.70849609 C264.97870652 824.18509993 264.0443271 824.66170377 263.08163315 825.15275014 C252.76187177 830.41641906 242.4404213 835.67676945 232.11823511 840.93568134 C213.93813309 850.19831186 195.76608342 859.47670787 177.59783936 868.76257324 C176.72055952 869.21092421 175.84327968 869.65927518 174.9394156 870.12121253 C130.58203991 892.79256553 86.34404091 915.69386019 42.14219409 938.66672303 C40.08101265 939.73788137 38.01971622 940.80881807 35.95837359 941.87966618 C34.63504314 942.56714107 33.31171296 943.25461647 31.98838305 943.94209242 C31.02851277 944.44072778 31.02851277 944.44072778 30.04925117 944.94943658 C26.9358848 946.56702193 23.82304858 948.18561264 20.71135345 949.80641085 C17.37277139 951.54525632 14.03302874 953.28185326 10.69307327 955.01805878 C9.71243239 955.52984497 8.73179151 956.04163117 7.72143424 956.56892604 C6.84079452 957.02618612 5.9601548 957.48344621 5.05282903 957.95456266 C4.2884072 958.35262522 3.52398537 958.75068777 2.73639925 959.16081282 C1 960 1 960 0 960 C0 643.2 0 326.4 0 0 Z " fill="#C8102E" transform="translate(0,0)"/>
<path d="M0 0 C285.12 0 570.24 0 864 0 C864 126.72 864 253.44 864 384 C578.88 384 293.76 384 0 384 C0 257.28 0 130.56 0 0 Z " fill="#FEFEFE" transform="translate(0,0)"/>
<path d="M0 0 C285.12 0 570.24 0 864 0 C864 35.64 864 71.28 864 108 C655.11 212.445 655.11 212.445 442 319 C581.26 319.33 720.52 319.66 864 320 C864 341.12 864 362.24 864 384 C578.88 384 293.76 384 0 384 C0 257.28 0 130.56 0 0 Z " fill="#FEFEFE" transform="translate(1056,0)"/>
<path d="M0 0 C285.12 0 570.24 0 864 0 C864 126.72 864 253.44 864 384 C842.88 384 821.76 384 800 384 C800 287.64 800 191.28 800 92 C758.6778125 113.07875 717.355625 134.1575 674.78125 155.875 C650.07358386 168.4018688 625.36520266 180.92654576 600.63810253 193.41488743 C586.11828001 200.74826348 571.59914021 208.08298845 557.08210593 215.42188281 C555.326713 216.30929393 553.57129857 217.19666251 551.81586236 218.08398801 C523.95722032 232.16621882 496.1469617 246.34094613 468.36109243 260.56615373 C439.74224729 275.21717602 411.0757175 289.77047955 382.34799666 304.20694131 C378.26667564 306.25797151 374.18589901 308.31008263 370.10545349 310.362854 C369.30254807 310.76673394 368.49964264 311.17061388 367.67240675 311.58673261 C354.88094168 318.02458816 342.14189905 324.55990364 329.42081773 331.13554436 C316.5502045 337.78571027 303.62743 344.32442871 290.6489411 350.76157904 C283.64897595 354.23700925 276.67803335 357.75105603 269.77003479 361.4063797 C227.48036441 383.73794613 191.57338176 387.70241676 144 384 C146.73278856 381.84955216 149.44075293 380.15480975 152.54919648 378.60120326 C153.46410533 378.14150155 154.37901417 377.68179983 155.32164752 377.20816776 C156.32508579 376.70907564 157.32852405 376.20998352 158.36236954 375.6957674 C159.96987086 374.89028598 159.96987086 374.89028598 161.60984695 374.0685322 C164.595345 372.57358642 167.58260321 371.08226318 170.57064368 369.59241197 C173.81693243 367.9726983 177.06090001 366.34834787 180.30516028 364.72457618 C185.99482148 361.8776701 191.68596558 359.03374654 197.37808228 356.19175339 C205.84208262 351.96578128 214.30379087 347.73523554 222.76502973 343.50373767 C236.99734066 336.38626736 251.23151294 329.27252715 265.46674347 322.16089821 C279.56492659 315.11772017 293.66228376 308.0728933 307.75853729 301.02585411 C308.6344335 300.58797475 309.5103297 300.15009538 310.41276822 299.69894695 C314.86085252 297.47524313 319.30892204 295.25150975 323.75698587 293.027765 C355.27682131 277.26994866 386.79851061 261.51584406 418.32128906 245.76391602 C448.9485294 230.45947764 479.57493054 215.15336198 510.20019531 199.8449707 C511.14391254 199.37324361 512.08762978 198.90151652 513.0599445 198.41549467 C522.53699032 193.67829026 532.01401907 188.9410517 541.49103532 184.20378812 C560.79745246 174.55311589 580.10398353 164.9026716 599.4105835 155.25236511 C600.29830334 154.80864248 601.18602318 154.36491985 602.10064362 153.90775108 C661.39852081 124.26801584 720.69905397 94.63359477 780 65 C702.35720124 56.46813162 635.43424107 59.78488842 564.44238281 94.28320312 C563.6607392 94.66241213 562.87909559 95.04162114 562.07376581 95.43232132 C542.32973293 105.02781663 522.85115951 115.11341315 503.4635737 125.40699397 C490.63140977 132.22004043 477.73515121 138.89134582 464.76912689 145.44606018 C463.45714914 146.10942711 463.45714914 146.10942711 462.1186668 146.7861954 C457.6722363 149.03364383 453.2247454 151.2789853 448.77684268 153.52351838 C417.67833322 169.22132163 386.71733432 185.17320082 355.83496094 201.29150391 C325.92927673 216.89924812 295.96404424 232.38218404 265.91308594 247.70849609 C264.97870652 248.18509993 264.0443271 248.66170377 263.08163315 249.15275014 C252.76187177 254.41641906 242.4404213 259.67676945 232.11823511 264.93568134 C213.93813309 274.19831186 195.76608342 283.47670787 177.59783936 292.76257324 C176.72055952 293.21092421 175.84327968 293.65927518 174.9394156 294.12121253 C130.58203991 316.79256553 86.34404091 339.69386019 42.14219409 362.66672303 C40.08101265 363.73788137 38.01971622 364.80881807 35.95837359 365.87966618 C34.63504314 366.56714107 33.31171296 367.25461647 31.98838305 367.94209242 C31.02851277 368.44072778 31.02851277 368.44072778 30.04925117 368.94943658 C26.9358848 370.56702193 23.82304858 372.18561264 20.71135345 373.80641085 C17.37277139 375.54525632 14.03302874 377.28185326 10.69307327 379.01805878 C9.71243239 379.52984497 8.73179151 380.04163117 7.72143424 380.56892604 C6.84079452 381.02618612 5.9601548 381.48344621 5.05282903 381.95456266 C4.2884072 382.35262522 3.52398537 382.75068777 2.73639925 383.16081282 C1 384 1 384 0 384 C0 257.28 0 130.56 0 0 Z " fill="#FEFEFE" transform="translate(0,576)"/>
<path d="M0 0 C285.12 0 570.24 0 864 0 C864 21.12 864 42.24 864 64 C724.74 64.33 585.48 64.66 442 65 C581.26 134.63 720.52 204.26 864 276 C864 287.88 864 299.76 864 312 C857.25037736 309.75012579 857.25037736 309.75012579 854.27515882 308.18065584 C853.59542838 307.82497404 852.91569794 307.46929224 852.21536961 307.1028322 C851.48530692 306.71502159 850.75524423 306.32721099 850.00305843 305.92764854 C849.21107537 305.5116893 848.4190923 305.09573006 847.60310975 304.66716599 C845.86554267 303.75386396 844.12906692 302.83848344 842.39354473 301.92130153 C839.54703783 300.41715492 836.69762682 298.91864011 833.84746224 297.42143691 C829.65343283 295.21775847 825.46052564 293.01196568 821.2684288 290.80461311 C809.59672603 284.66047666 797.91400949 278.53734096 786.22862244 272.41928101 C785.60946063 272.09506839 784.99029882 271.77085577 784.35237453 271.43681852 C764.02875079 260.79569177 743.66360642 250.23708582 723.26490784 239.7406311 C722.59404923 239.39539432 721.92319063 239.05015754 721.23200298 238.69445903 C707.34804806 231.54987681 693.45901638 224.41521004 679.56384658 217.29246375 C671.68860582 213.25552459 663.81478184 209.2158306 655.94213867 205.17382812 C655.2298001 204.80815744 654.51746152 204.44248675 653.78353693 204.06573513 C630.96162595 192.34874114 608.23875383 180.45378012 585.56284895 168.45700349 C562.11200783 156.05154925 538.56550459 143.84841394 514.89477236 131.86747139 C511.49998326 130.14908305 508.10628142 128.42855792 504.71324348 126.70671463 C503.71220635 126.19884633 503.71220635 126.19884633 502.69094625 125.68071806 C493.51467293 121.0192842 484.41438593 116.23445377 475.36345516 111.3343625 C471.57163136 109.28613182 467.76915079 107.25769283 463.96756797 105.22764613 C461.06966338 103.67708518 458.18421084 102.11077379 455.31245697 100.51190861 C375.85338343 56.28564768 324.00054999 65 227 65 C436.88 169.94 646.76 274.88 863 383 C863 383.33 863 383.66 863 384 C774.15843982 398.46632989 682.95350159 401.05713376 499.25390625 320.125 C497.64566313 319.31782371 496.03740868 318.51067001 494.42914289 317.70353889 C455.07890608 297.94077297 416.13176815 277.4381927 377.34323208 256.59805632 C352.23551484 243.10834396 327.02301576 229.83968147 301.70141602 216.75585938 C299.97959266 215.86585385 298.25777213 214.97584285 296.53595442 214.0858264 C282.52545176 206.84498374 268.50833585 199.61696633 254.48962746 192.39202601 C190.68289613 159.49593352 127.40167458 125.69443865 64 92 C64 188.36 64 284.72 64 384 C42.88 384 21.76 384 0 384 C0 257.28 0 130.56 0 0 Z " fill="#FEFEFE" transform="translate(1056,576)"/>
<path d="M0 0 C192.72 0 385.44 0 584 0 C581.15254052 2.13559461 578.89950639 3.67530429 575.79935443 5.22567195 C574.96236257 5.6466714 574.1253707 6.06767085 573.26301545 6.50142786 C571.88866758 7.18509005 571.88866758 7.18509005 570.4865551 7.88256359 C569.50665893 8.37396512 568.52676275 8.86536665 567.51717275 9.37165913 C564.20978327 11.02902394 560.89955458 12.68063711 557.58932495 14.33232117 C555.20299289 15.52663861 552.81682094 16.72127109 550.43084061 17.91629058 C545.23091335 20.51987072 540.02949918 23.12046046 534.82710648 25.71911049 C527.09122921 29.58327303 519.3576376 33.45199284 511.62449497 37.32162455 C497.81535402 44.23146637 484.00392182 51.13671829 470.19151762 58.04003431 C458.1059926 64.08028387 446.02120964 70.12201483 433.93716812 76.1652317 C432.73605328 76.76590371 432.73605328 76.76590371 431.51067348 77.37871049 C428.26044224 79.00413744 425.01021383 80.62957004 421.75999008 82.25501196 C391.25717814 97.50947845 360.75203287 112.75927355 330.24584506 128.00698757 C303.12173359 141.56429626 275.99969473 155.12574265 248.87939453 168.69067383 C218.42999876 183.9207217 187.97931693 199.1481933 157.52654374 214.37148696 C154.28276006 215.99305807 151.03897953 217.61463549 147.79520035 219.23621559 C146.99646022 219.63550658 146.19772009 220.03479757 145.37477571 220.44618828 C133.29317924 226.48584725 121.21257384 232.52748533 109.13244247 238.57007408 C95.40414253 245.43707702 81.67442678 252.30123979 67.94281064 259.16160925 C60.25012405 263.00500656 52.55855605 266.85062252 44.86855213 270.69938469 C39.74061471 273.26558508 34.61124446 275.82890485 29.48066682 278.38982257 C26.55174056 279.85189251 23.6236983 281.31568577 20.69694005 282.78209194 C17.5536972 284.35671695 14.40807694 285.92648336 11.26176262 287.49495983 C9.88039125 288.18915727 9.88039125 288.18915727 8.47111338 288.89737889 C7.63912856 289.31086779 6.80714373 289.72435668 5.94994724 290.15037555 C4.86987601 290.69030952 4.86987601 290.69030952 3.76798516 291.24115125 C2 292 2 292 0 292 C0 195.64 0 99.28 0 0 Z " fill="#012169" transform="translate(1120,0)"/>
<path d="M0 0 C192.72 0 385.44 0 584 0 C584 96.36 584 192.72 584 292 C580.19416712 290.73138904 577.04461846 289.64726475 573.54865611 287.89852655 C572.7066572 287.47977439 571.8646583 287.06102223 570.99714428 286.62958062 C570.0855947 286.17117881 569.17404512 285.71277701 568.23487282 285.24048424 C567.25206976 284.75023655 566.26926671 284.25998887 565.25668174 283.7548852 C561.94766136 282.10303228 558.64153694 280.44546455 555.33535767 278.78793335 C552.94621479 277.59379779 550.55691508 276.39998092 548.16741884 275.2065531 C542.96422172 272.60702796 537.76251844 270.00453341 532.56177902 267.40009499 C524.82845408 263.52739928 517.09284155 259.65929028 509.3567509 255.79212291 C496.34369662 249.28690998 483.33250842 242.77797299 470.32237625 236.26691818 C457.43901523 229.81932249 444.55482965 223.37337931 431.66953659 216.92964554 C430.86864059 216.5291288 430.06774459 216.12861206 429.24257901 215.71595845 C425.17529855 213.68197989 421.10800332 211.64803088 417.04070239 209.61409326 C388.22524105 195.20426167 359.41163663 180.79072069 330.59912109 166.375 C302.60657043 152.36954166 274.61318078 138.36576252 246.61865234 124.36425781 C245.75587718 123.93273871 244.89310202 123.5012196 244.00418216 123.05662416 C235.33991028 118.72316971 226.67562133 114.38974941 218.01131985 110.05635414 C200.36083096 101.22857342 182.71045608 92.40056473 165.06015015 83.57241821 C163.84282686 82.96355063 163.84282686 82.96355063 162.60091118 82.3423827 C108.39869727 55.23207367 54.19914165 28.11645049 0 1 C0 0.67 0 0.34 0 0 Z " fill="#012169" transform="translate(216,0)"/>
<path d="M0 0 C-2.69021796 2.10468771 -5.36978165 3.82812939 -8.39747506 5.40520877 C-9.27861054 5.8663439 -10.15974602 6.32747903 -11.06758258 6.80258796 C-12.51623872 7.55363265 -12.51623872 7.55363265 -13.99416065 8.31984997 C-15.02636265 8.85852596 -16.05856464 9.39720195 -17.12204549 9.95220146 C-19.99782649 11.45177697 -22.87533247 12.9479769 -25.75372743 14.44252724 C-28.23978175 15.73397581 -30.72455709 17.02787535 -33.20937648 18.32169796 C-40.79254592 22.26994027 -48.37984386 26.21020529 -55.96827424 30.14832461 C-59.66246678 32.06549098 -63.35610514 33.9837223 -67.04958364 35.90226387 C-104.5229824 55.36680541 -142.05002642 74.72503462 -179.6492157 93.94551086 C-180.52294931 94.39217429 -181.39668292 94.83883772 -182.29689331 95.29903641 C-201.30278767 105.01440751 -220.31550533 114.71634734 -239.33608689 124.40293191 C-248.66541419 129.15410139 -257.99335682 133.90798558 -267.32055664 138.66333008 C-268.24845682 139.13634655 -269.17635699 139.60936303 -270.13237536 140.09671334 C-299.93975503 155.29332495 -329.64650336 170.67499113 -359.30400463 186.16178667 C-389.92559227 202.15073108 -420.64304394 217.9390981 -451.4852121 233.49861985 C-455.89271981 235.72226104 -460.29914533 237.94803872 -464.704916 240.1751194 C-465.57160591 240.6131386 -466.43829583 241.0511578 -467.33124907 241.50245031 C-479.32184848 247.56837536 -491.23847641 253.76071709 -503.1052554 260.06523148 C-523.11567526 270.6962064 -543.23682964 281.06845442 -563.63012695 290.94799805 C-564.78894143 291.51033623 -564.78894143 291.51033623 -565.9711663 292.08403478 C-636.39457868 326.1706042 -704.1710985 328.22180249 -781 320 C-778.30978204 317.89531229 -775.63021835 316.17187061 -772.60252494 314.59479123 C-771.72138946 314.1336561 -770.84025398 313.67252097 -769.93241742 313.19741204 C-768.96664666 312.69671558 -768.00087589 312.19601912 -767.00583935 311.68015003 C-765.45753635 310.87213605 -765.45753635 310.87213605 -763.87795451 310.04779854 C-761.00217351 308.54822303 -758.12466753 307.0520231 -755.24627257 305.55747276 C-752.76021825 304.26602419 -750.27544291 302.97212465 -747.79062352 301.67830204 C-740.20745408 297.73005973 -732.62015614 293.78979471 -725.03172576 289.85167539 C-721.33753322 287.93450902 -717.64389486 286.0162777 -713.95041636 284.09773613 C-676.4770176 264.63319459 -638.94997358 245.27496538 -601.3507843 226.05448914 C-600.47705069 225.60782571 -599.60331708 225.16116228 -598.70310669 224.70096359 C-579.69721233 214.98559249 -560.68449467 205.28365266 -541.66391311 195.59706809 C-532.33458581 190.84589861 -523.00664318 186.09201442 -513.67944336 181.33666992 C-512.75154318 180.86365345 -511.82364301 180.39063697 -510.86762464 179.90328666 C-481.06024497 164.70667505 -451.35349664 149.32500887 -421.69599537 133.83821333 C-391.07440773 117.84926892 -360.35695606 102.0609019 -329.5147879 86.50138015 C-325.10728019 84.27773896 -320.70085467 82.05196128 -316.295084 79.8248806 C-315.42839409 79.3868614 -314.56170417 78.9488422 -313.66875093 78.49754969 C-301.67815152 72.43162464 -289.76152359 66.23928291 -277.8947446 59.93476852 C-257.88432474 49.3037936 -237.76317036 38.93154558 -217.36987305 29.05200195 C-216.21105857 28.48966377 -216.21105857 28.48966377 -215.0288337 27.91596522 C-144.60542132 -6.1706042 -76.8289015 -8.22180249 0 0 Z " fill="#C8102E" transform="translate(782,640)"/>
<path d="M0 0 C-2.69021796 2.10468771 -5.36978165 3.82812939 -8.39747506 5.40520877 C-9.27861054 5.8663439 -10.15974602 6.32747903 -11.06758258 6.80258796 C-12.51623872 7.55363265 -12.51623872 7.55363265 -13.99416065 8.31984997 C-15.02636265 8.85852596 -16.05856464 9.39720195 -17.12204549 9.95220146 C-19.99782649 11.45177697 -22.87533247 12.9479769 -25.75372743 14.44252724 C-28.23978175 15.73397581 -30.72455709 17.02787535 -33.20937648 18.32169796 C-40.79254592 22.26994027 -48.37984386 26.21020529 -55.96827424 30.14832461 C-59.66246678 32.06549098 -63.35610514 33.9837223 -67.04958364 35.90226387 C-104.5229824 55.36680541 -142.05002642 74.72503462 -179.6492157 93.94551086 C-180.52294931 94.39217429 -181.39668292 94.83883772 -182.29689331 95.29903641 C-201.30278767 105.01440751 -220.31550533 114.71634734 -239.33608689 124.40293191 C-248.66541419 129.15410139 -257.99335682 133.90798558 -267.32055664 138.66333008 C-268.24845682 139.13634655 -269.17635699 139.60936303 -270.13237536 140.09671334 C-299.93975503 155.29332495 -329.64650336 170.67499113 -359.30400463 186.16178667 C-389.92559227 202.15073108 -420.64304394 217.9390981 -451.4852121 233.49861985 C-455.89271981 235.72226104 -460.29914533 237.94803872 -464.704916 240.1751194 C-465.57160591 240.6131386 -466.43829583 241.0511578 -467.33124907 241.50245031 C-479.32184848 247.56837536 -491.23847641 253.76071709 -503.1052554 260.06523148 C-523.11567526 270.6962064 -543.23682964 281.06845442 -563.63012695 290.94799805 C-564.78894143 291.51033623 -564.78894143 291.51033623 -565.9711663 292.08403478 C-636.39457868 326.1706042 -704.1710985 328.22180249 -781 320 C-778.30978204 317.89531229 -775.63021835 316.17187061 -772.60252494 314.59479123 C-771.72138946 314.1336561 -770.84025398 313.67252097 -769.93241742 313.19741204 C-768.96664666 312.69671558 -768.00087589 312.19601912 -767.00583935 311.68015003 C-765.45753635 310.87213605 -765.45753635 310.87213605 -763.87795451 310.04779854 C-761.00217351 308.54822303 -758.12466753 307.0520231 -755.24627257 305.55747276 C-752.76021825 304.26602419 -750.27544291 302.97212465 -747.79062352 301.67830204 C-740.20745408 297.73005973 -732.62015614 293.78979471 -725.03172576 289.85167539 C-721.33753322 287.93450902 -717.64389486 286.0162777 -713.95041636 284.09773613 C-676.4770176 264.63319459 -638.94997358 245.27496538 -601.3507843 226.05448914 C-600.47705069 225.60782571 -599.60331708 225.16116228 -598.70310669 224.70096359 C-579.69721233 214.98559249 -560.68449467 205.28365266 -541.66391311 195.59706809 C-532.33458581 190.84589861 -523.00664318 186.09201442 -513.67944336 181.33666992 C-512.75154318 180.86365345 -511.82364301 180.39063697 -510.86762464 179.90328666 C-481.06024497 164.70667505 -451.35349664 149.32500887 -421.69599537 133.83821333 C-391.07440773 117.84926892 -360.35695606 102.0609019 -329.5147879 86.50138015 C-325.10728019 84.27773896 -320.70085467 82.05196128 -316.295084 79.8248806 C-315.42839409 79.3868614 -314.56170417 78.9488422 -313.66875093 78.49754969 C-301.67815152 72.43162464 -289.76152359 66.23928291 -277.8947446 59.93476852 C-257.88432474 49.3037936 -237.76317036 38.93154558 -217.36987305 29.05200195 C-216.21105857 28.48966377 -216.21105857 28.48966377 -215.0288337 27.91596522 C-144.60542132 -6.1706042 -76.8289015 -8.22180249 0 0 Z " fill="#C8102E" transform="translate(1919,0)"/>
<path d="M0 0 C139.92 0 279.84 0 424 0 C420.43562611 2.67328042 416.94274969 4.66851398 412.9853344 6.63317394 C411.92069982 7.16767139 411.92069982 7.16767139 410.83455747 7.71296677 C408.44610526 8.91085408 406.05483407 10.10300147 403.6635437 11.29521179 C401.9371805 12.15954515 400.21099192 13.02422734 398.48496354 13.88922912 C393.73380581 16.26899358 388.98015484 18.64373955 384.2260859 21.01768172 C379.10261806 23.5771587 373.98144879 26.14122723 368.85998535 28.70471191 C358.82442409 33.7269458 348.7866983 38.74483871 338.74819718 43.76119336 C330.59352212 47.83627547 322.43962635 51.91291282 314.28628922 55.99067116 C313.12730762 56.57031519 311.96832603 57.14995922 310.77422378 57.74716822 C308.42005359 58.92457303 306.06588519 60.10198144 303.71171857 61.27939341 C282.25296329 72.01154306 260.7919507 82.73917165 239.32999227 93.46491397 C219.72470618 103.26280955 200.12149437 113.06484332 180.52001953 122.87036133 C158.50865773 133.88139259 136.49600297 144.88983168 114.48127091 155.89412338 C112.13620534 157.0663376 109.79114145 158.23855517 107.44607925 159.41077614 C106.29214254 159.98759022 105.13820582 160.5644043 103.94930132 161.1586976 C95.79915959 165.23290333 87.64995049 169.30897064 79.50109482 173.38574791 C69.5789436 178.34962124 59.65538336 183.31066389 49.72997724 188.26802596 C44.66147396 190.79964046 39.59363212 193.33255667 34.52750015 195.86891365 C29.89703923 198.18710672 25.26477287 200.50164803 20.63098909 202.81319163 C18.94801575 203.65355399 17.26572742 204.49528977 15.58416806 205.33847793 C13.31225163 206.47744243 11.03797033 207.61153386 8.76298332 208.74434948 C8.09876435 209.07880013 7.43454537 209.41325079 6.75019854 209.75783631 C2.22830084 212 2.22830084 212 0 212 C0 142.04 0 72.08 0 0 Z " fill="#012169" transform="translate(0,640)"/>
<path d="M0 0 C4.68763225 1.56254408 8.88997334 3.30438258 13.26634789 5.51012611 C13.97901115 5.8653039 14.69167442 6.22048169 15.42593354 6.58642244 C17.81601025 7.77881169 20.20318806 8.97689117 22.59042358 10.17495728 C24.31959777 11.03910832 26.04894771 11.90290776 27.77845824 12.76638544 C32.53256445 15.14120023 37.28415869 17.52100296 42.03536344 19.9016161 C47.15860441 22.46755038 52.28415263 25.02886811 57.40942383 27.59074402 C66.28968478 32.03034985 75.16847493 36.47288553 84.04627609 40.91740799 C96.88212912 47.34345754 109.72018589 53.76509394 122.55878682 60.18565135 C143.38792514 70.60240976 164.21527737 81.02273395 185.04150391 91.4453125 C205.2736372 101.57056381 225.50661029 111.69413386 245.74072266 121.81542969 C246.36444887 122.12742432 246.98817508 122.43941895 247.63080209 122.76086797 C253.89452998 125.89405043 260.15827495 129.02719873 266.42203244 132.160322 C318.95060622 158.43504961 371.47629542 184.71554015 424 211 C424 211.33 424 211.66 424 212 C284.08 212 144.16 212 0 212 C0 142.04 0 72.08 0 0 Z " fill="#012169" transform="translate(0,108)"/>
<path d="M0 0 C91.59148355 -20.65614073 167.67708448 5.64281775 265.46484375 54.25 C266.83186591 54.93554282 268.19889559 55.62107062 269.56593281 56.3065834 C303.23965621 73.20212547 336.64773656 90.59511384 369.95278998 108.20439053 C391.54600012 119.62126636 413.20781263 130.8951555 434.94116211 142.04296875 C435.6634056 142.41349462 436.38564909 142.78402048 437.12977875 143.16577441 C444.38732315 146.88887487 451.64613701 150.60949441 458.90588096 154.32830395 C473.6758688 161.89431281 488.4373799 169.47678627 503.19374084 177.06933594 C503.87123089 177.41789719 504.54872093 177.76645844 505.24674097 178.12558216 C549.97568989 201.14051348 594.49765497 224.55049814 639 248 C639 271.76 639 295.52 639 320 C617.17621468 309.66241748 617.17621468 309.66241748 607.97932148 305.05118465 C606.91060675 304.51740421 605.84189203 303.98362377 604.74079201 303.43366817 C601.83135326 301.9800277 598.92279516 300.52464404 596.01463391 299.06845005 C592.82923985 297.47400894 589.64266167 295.88193727 586.45624369 294.28954369 C580.89095455 291.50792805 575.3263988 288.72484994 569.76234055 285.94077301 C561.48898028 281.80105648 553.21445842 277.66366579 544.93970844 273.52672795 C531.01556117 266.56530902 517.09234051 259.6020388 503.16965675 252.63769341 C489.39506256 245.74743239 475.62005117 238.85800655 461.84448814 231.96968269 C460.98625919 231.54053385 460.12803024 231.111385 459.24379436 230.66923165 C454.8848426 228.48958659 450.52588345 226.30995633 446.16692146 224.13033176 C415.33517083 208.71340773 384.50434693 193.29463126 353.67407227 177.87475586 C323.73281178 162.8995295 293.79112891 147.92514817 263.84887695 132.9519043 C262.46315345 132.2589439 262.46315345 132.2589439 261.04943553 131.55198431 C251.77164815 126.91243132 242.49385221 122.27289545 233.21605 117.63337211 C214.3180306 108.18309448 195.42006828 98.73270269 176.5221405 89.28224182 C175.65334588 88.84777586 174.78455126 88.41330991 173.88942952 87.96567832 C115.92532951 58.97903212 57.9625601 29.9897253 0 1 C0 0.67 0 0.34 0 0 Z " fill="#C8102E" transform="translate(1281,640)"/>
<path d="M0 0 C21.82378532 10.33758252 21.82378532 10.33758252 31.02067852 14.94881535 C32.08939325 15.48259579 33.15810797 16.01637623 34.25920799 16.56633183 C37.16864674 18.0199723 40.07720484 19.47535596 42.98536609 20.93154995 C46.17076015 22.52599106 49.35733833 24.11806273 52.54375631 25.71045631 C58.10904545 28.49207195 63.6736012 31.27515006 69.23765945 34.05922699 C77.51101972 38.19894352 85.78554158 42.33633421 94.06029156 46.47327205 C107.98443883 53.43469098 121.90765949 60.3979612 135.83034325 67.36230659 C149.60493744 74.25256761 163.37994883 81.14199345 177.15551186 88.03031731 C178.01374081 88.45946615 178.87196976 88.888615 179.75620564 89.33076835 C184.1151574 91.51041341 188.47411655 93.69004367 192.83307854 95.86966824 C223.66482917 111.28659227 254.49565307 126.70536874 285.32592773 142.12524414 C315.26718822 157.1004705 345.20887109 172.07485183 375.15112305 187.0480957 C376.53684655 187.7410561 376.53684655 187.7410561 377.95056447 188.44801569 C387.22835185 193.08756868 396.50614779 197.72710455 405.78395 202.36662789 C424.6819694 211.81690552 443.57993172 221.26729731 462.4778595 230.71775818 C463.34665412 231.15222414 464.21544874 231.58669009 465.11057048 232.03432168 C523.07467049 261.02096788 581.0374399 290.0102747 639 319 C639 319.33 639 319.66 639 320 C547.40851645 340.65614073 471.32291552 314.35718225 373.53515625 265.75 C372.16813409 265.06445718 370.80110441 264.37892938 369.43406719 263.6934166 C335.76034379 246.79787453 302.35226344 229.40488616 269.04721002 211.79560947 C247.45399988 200.37873364 225.79218737 189.1048445 204.05883789 177.95703125 C203.3365944 177.58650538 202.61435091 177.21597952 201.87022125 176.83422559 C194.61267685 173.11112513 187.35386299 169.39050559 180.09411904 165.67169605 C165.3241312 158.10568719 150.5626201 150.52321373 135.80625916 142.93066406 C135.12876911 142.58210281 134.45127907 142.23354156 133.75325903 141.87441784 C89.02431011 118.85948652 44.50234503 95.44950186 0 72 C0 48.24 0 24.48 0 0 Z " fill="#C8102E" transform="translate(0,0)"/>
<path d="M0 0 C0.66 0 1.32 0 2 0 C2.37471436 1.17949219 2.74942871 2.35898438 3.13549805 3.57421875 C4.9825019 9.38398154 6.8344072 15.19217682 8.6875 21 C9.03248535 22.08169464 9.3774707 23.16338928 9.73291016 24.27786255 C14.33513718 38.69572756 19.00056244 53.09103041 23.73828125 67.46484375 C24.22239032 68.9345386 24.70649576 70.40423464 25.19059753 71.87393188 C27.33651608 78.38637993 29.48583744 84.89766226 31.64512157 91.4056921 C32.5439799 94.11754048 33.43934647 96.83053316 34.33392906 99.54379463 C34.95508143 101.42348091 35.58098077 103.3015964 36.20698547 105.17967224 C36.57631699 106.30108109 36.9456485 107.42248993 37.32617188 108.57788086 C37.65097534 109.55736191 37.97577881 110.53684296 38.3104248 111.54600525 C39 114 39 114 39 117 C79.26 117 119.52 117 161 117 C155.38095238 122.61904762 155.38095238 122.61904762 152.4609375 124.62109375 C151.80810791 125.07411865 151.15527832 125.52714355 150.48266602 125.99389648 C149.78713623 126.47028564 149.09160645 126.9466748 148.375 127.4375 C142.03345191 131.84585978 135.76763748 136.33906702 129.5625 140.9375 C119.69157439 148.24357105 109.73809736 155.43114588 99.77050781 162.60449219 C97.53389879 164.21465492 95.29808081 165.82591004 93.0625 167.4375 C91.96989868 168.22398926 91.96989868 168.22398926 90.85522461 169.02636719 C86.78495704 171.96335157 82.7391496 174.92997711 78.71484375 177.9296875 C77.84400146 178.57752197 76.97315918 179.22535645 76.07592773 179.89282227 C74.38610879 181.15213857 72.69930817 182.41551735 71.01586914 183.68334961 C69.87879517 184.53038452 69.87879517 184.53038452 68.71875 185.39453125 C67.71231445 186.15020386 67.71231445 186.15020386 66.68554688 186.92114258 C65 188 65 188 63 188 C64.70892269 193.2506839 66.41802968 198.50130777 68.1272583 203.75189209 C68.75080067 205.66744453 69.37429513 207.58301257 69.9977417 209.49859619 C73.70234806 220.88116543 77.41102907 232.26238289 81.12890625 243.640625 C82.13512419 246.72140109 83.14127957 249.80219761 84.14743042 252.88299561 C84.79296444 254.85875331 85.43889178 256.83438255 86.0852356 258.80987549 C89.47852193 269.18140754 92.82867855 279.55816534 96 290 C96.91116107 292.93922926 97.83000144 295.8760266 98.75 298.8125 C98.97042969 299.51697266 99.19085937 300.22144531 99.41796875 300.94726562 C99.94503821 302.63159627 100.47247511 304.31581193 101 306 C98.24678614 304.69302984 95.80366726 303.24417133 93.33984375 301.453125 C92.63859375 300.94523437 91.93734375 300.43734375 91.21484375 299.9140625 C90.08755859 299.09035156 90.08755859 299.09035156 88.9375 298.25 C88.14601563 297.67507813 87.35453125 297.10015625 86.5390625 296.5078125 C80.04120805 291.78023966 73.574866 287.00991993 67.11132812 282.2355957 C58.78749752 276.09226161 50.39685107 270.0429375 42 264 C39.01996608 261.85536762 36.04084252 259.70948065 33.0625 257.5625 C32.33192383 257.03672363 31.60134766 256.51094727 30.84863281 255.96923828 C26.81438249 253.05875178 22.80549573 250.11800957 18.8203125 247.140625 C17.96300537 246.50181396 17.10569824 245.86300293 16.22241211 245.20483398 C14.57118516 243.97217868 12.92337343 242.73493095 11.27954102 241.49243164 C9.21332152 239.95116402 7.12065779 238.46499548 5 237 C4.175 236.41476562 3.35 235.82953125 2.5 235.2265625 C-2.09431915 234.81020233 -5.24429921 238.31471196 -8.6875 241.0625 C-10.39764504 242.37603238 -12.10860165 243.68850873 -13.8203125 245 C-14.6855957 245.67160156 -15.55087891 246.34320312 -16.44238281 247.03515625 C-20.25455443 249.96378905 -24.1536843 252.76494664 -28.0625 255.5625 C-29.55492825 256.63768674 -31.04711553 257.71320803 -32.5390625 258.7890625 C-34.76903289 260.394446 -36.99926236 261.99946914 -39.22949219 263.60449219 C-48.48128202 270.26497108 -57.69663078 276.97038389 -66.86352539 283.74731445 C-73.24828229 288.46183636 -79.67501128 293.11616159 -86.12695312 297.73828125 C-89.83301594 300.40062369 -93.4687834 303.10578718 -97 306 C-97.66 305.67 -98.32 305.34 -99 305 C-98.78496826 304.34681793 -98.56993652 303.69363586 -98.34838867 303.0206604 C-95.56247478 294.55646407 -92.77996472 286.09115185 -90 277.625 C-89.7758567 276.9424049 -89.55171341 276.2598098 -89.32077789 275.55653 C-81.1460474 250.65731427 -73.09195423 225.72136087 -65.15524292 200.74510193 C-63.80049065 196.48613442 -62.42658603 192.23563245 -61 188 C-61.589021 187.71801758 -62.17804199 187.43603516 -62.78491211 187.14550781 C-64.80371049 186.10150891 -66.58841867 184.98171394 -68.44140625 183.671875 C-69.0974585 183.20918213 -69.75351074 182.74648926 -70.42944336 182.26977539 C-71.13335205 181.76824951 -71.83726074 181.26672363 -72.5625 180.75 C-73.30701416 180.22204834 -74.05152832 179.69409668 -74.81860352 179.15014648 C-81.21079712 174.59969244 -87.53053348 169.95338501 -93.83789062 165.28637695 C-101.43642472 159.66540611 -109.09535403 154.13069174 -116.76611328 148.60888672 C-121.25452301 145.37625064 -125.7377441 142.13640906 -130.21948242 138.89453125 C-134.13573937 136.06290179 -138.05875866 133.24133234 -141.9921875 130.43359375 C-142.80945312 129.84835937 -143.62671875 129.263125 -144.46875 128.66015625 C-146.03168604 127.54123613 -147.59667911 126.42518172 -149.1640625 125.3125 C-149.87046875 124.80589844 -150.576875 124.29929687 -151.3046875 123.77734375 C-151.92327637 123.33640381 -152.54186523 122.89546387 -153.17919922 122.44116211 C-155.26177745 120.79280339 -157.12194003 118.87805997 -159 117 C-118.74 117 -78.48 117 -37 117 C-36.34 114.03 -35.68 111.06 -35 108 C-34.38006838 105.88627414 -33.72716966 103.7818276 -33.03564453 101.69042969 C-32.4627343 99.94678886 -32.4627343 99.94678886 -31.87825012 98.16792297 C-31.46725571 96.93172714 -31.05626129 95.69553131 -30.6328125 94.421875 C-30.19671892 93.09955277 -29.76103399 91.77709571 -29.32572937 90.45451355 C-28.40534867 87.66066759 -27.4823929 84.86769198 -26.55728149 82.07540894 C-25.11797044 77.73085248 -23.68467602 73.38432757 -22.25268555 69.03735352 C-21.77495858 67.58735312 -21.29722118 66.13735616 -20.81947327 64.68736267 C-20.58408403 63.9729344 -20.3486948 63.25850613 -20.10617256 62.52242851 C-19.39608714 60.36800189 -18.68543544 58.21376289 -17.97459412 56.05958557 C-14.47717577 45.45978866 -11.00067017 34.85337787 -7.55780029 24.23571777 C-7.06609526 22.71948969 -6.57379844 21.20345338 -6.08087158 19.68762207 C-5.41327785 17.63461929 -4.74733471 15.58108969 -4.08203125 13.52734375 C-3.72343018 12.42124756 -3.3648291 11.31515137 -2.99536133 10.17553711 C-1.9366755 6.79797356 -0.95852896 3.40717634 0 0 Z " fill="#FBFAFB" transform="translate(2879,1367)"/>
<path d="M0 0 C2.1374707 3.20620605 3.10495289 5.98571438 4.30322266 9.64501953 C4.52475006 10.31731094 4.74627747 10.98960236 4.97451782 11.68226624 C5.7087699 13.91436272 6.43644986 16.14854373 7.1640625 18.3828125 C7.67975148 19.9554346 8.19582061 21.52793209 8.71224976 23.10031128 C10.07778039 27.26180548 11.43765328 31.42512838 12.79650879 35.58880615 C14.14835324 39.7270994 15.50620906 43.86341884 16.86328125 48 C19.20604948 55.14456429 21.53967578 62.29206087 23.86526871 69.44223404 C25.01344826 72.97219531 26.16334035 76.5015561 27.32019043 80.02868652 C28.47657812 83.55648463 29.62602772 87.08646121 30.7734375 90.6171875 C31.27443466 92.13700729 31.27443466 92.13700729 31.78555298 93.68753052 C32.08238983 94.60646088 32.37922668 95.52539124 32.68505859 96.47216797 C32.94145111 97.25751923 33.19784363 98.04287048 33.46200562 98.85202026 C34 101 34 101 34 105 C70.63 105 107.26 105 145 105 C141.2445034 108.7554966 138.08733797 111.51731735 133.8125 114.5 C132.56210224 115.3796432 131.31212273 116.25988114 130.0625 117.140625 C129.4025 117.60404297 128.7425 118.06746094 128.0625 118.54492188 C124.45990348 121.08652643 120.88617199 123.66795482 117.3125 126.25 C116.18098511 127.06694336 116.18098511 127.06694336 115.02661133 127.90039062 C109.49420352 131.90193851 103.99198267 135.94320444 98.5 140 C84.76933169 150.14251457 70.90420362 160.09716687 57 170 C59.0140768 177.68253247 61.30882616 185.232194 63.80859375 192.76953125 C64.55819339 195.04662871 65.30778622 197.3237284 66.05737305 199.60083008 C66.64100113 201.36857285 66.64100113 201.36857285 67.23641968 203.17202759 C69.26488163 209.3202923 71.28091598 215.4726264 73.296875 221.625 C73.69782883 222.84850662 74.09878265 224.07201324 74.5118866 225.33259583 C77.84063781 235.49790355 81.15508291 245.66754192 84.40383911 255.85873413 C84.92465663 257.48949596 85.44813984 259.11940893 85.97433472 260.7484436 C86.69192454 262.97200076 87.40011601 265.1983174 88.10546875 267.42578125 C88.49887451 268.65723877 88.89228027 269.88869629 89.29760742 271.1574707 C90 274 90 274 89 276 C87.90558594 275.14341797 87.90558594 275.14341797 86.7890625 274.26953125 C78.12065847 267.52366399 69.2552661 261.07467035 60.33056641 254.67333984 C56.54768151 251.95723958 52.77418103 249.22817491 49 246.5 C44.51397374 243.25857842 40.02695148 240.0185803 35.53515625 236.78515625 C34.0442459 235.7109721 32.55336045 234.63675339 31.0625 233.5625 C29.96784424 232.77504395 29.96784424 232.77504395 28.85107422 231.97167969 C24.80211846 229.05132491 20.78102914 226.09812563 16.78515625 223.10546875 C15.9233374 222.462146 15.06151855 221.81882324 14.17358398 221.15600586 C12.50883239 219.91099047 10.84799594 218.660718 9.19165039 217.40454102 C8.44004639 216.84307373 7.68844238 216.28160645 6.9140625 215.703125 C6.2535791 215.20458008 5.5930957 214.70603516 4.91259766 214.19238281 C2.86286145 212.91450285 1.40513676 212.24758761 -1 212 C-3.54377685 213.61654884 -5.78716535 215.24623003 -8.125 217.125 C-9.56643054 218.24513584 -11.00918771 219.36356616 -12.453125 220.48046875 C-13.20142578 221.0636084 -13.94972656 221.64674805 -14.72070312 222.24755859 C-18.37927371 225.06045702 -22.12461073 227.74893585 -25.875 230.4375 C-27.394541 231.53123645 -28.91407219 232.62498654 -30.43359375 233.71875 C-31.95571442 234.81252052 -33.47784977 235.90627062 -35 237 C-44.26272974 243.66319596 -53.50459099 250.35207265 -62.6875 257.125 C-63.47302246 257.70386963 -64.25854492 258.28273926 -65.06787109 258.87915039 C-68.8731645 261.68540579 -72.67217539 264.49958622 -76.4609375 267.328125 C-77.15485596 267.84358887 -77.84877441 268.35905273 -78.5637207 268.89013672 C-79.86466207 269.85658663 -81.16283476 270.82677839 -82.45776367 271.80126953 C-86.77440849 275 -86.77440849 275 -89 275 C-86.82508472 265.56946233 -83.96680172 256.42840941 -80.921875 247.25390625 C-80.42690224 245.75206802 -79.93230174 244.25010706 -79.43804932 242.74803162 C-78.1425416 238.8143375 -76.84187398 234.88236878 -75.5401001 230.95074463 C-74.23829727 227.01577029 -72.94171608 223.07907665 -71.64453125 219.14257812 C-63.99715157 195.94860375 -63.99715157 195.94860375 -60.70507812 186.16748047 C-60.37171448 185.17562241 -60.03835083 184.18376434 -59.69488525 183.16184998 C-59.09623169 181.38410446 -58.49499077 179.60722709 -57.89056396 177.83143616 C-56.50143059 174.00144658 -56.50143059 174.00144658 -56 170 C-57.92536257 168.47394896 -59.85172853 167.07420908 -61.875 165.6875 C-63.16975422 164.78194074 -64.46400088 163.87565547 -65.7578125 162.96875 C-66.44907227 162.48664063 -67.14033203 162.00453125 -67.85253906 161.5078125 C-71.51196716 158.9383914 -75.12929366 156.3110631 -78.75 153.6875 C-80.28764912 152.57536693 -81.82541068 151.46338932 -83.36328125 150.3515625 C-84.1310791 149.79629883 -84.89887695 149.24103516 -85.68994141 148.66894531 C-87.95180829 147.03481701 -90.21576308 145.4036287 -92.48046875 143.7734375 C-100.97786108 137.65371315 -109.43780652 131.48709168 -117.85473633 125.25708008 C-121.93677303 122.24006963 -126.03469826 119.24886496 -130.1640625 116.296875 C-131.41219727 115.40355469 -131.41219727 115.40355469 -132.68554688 114.4921875 C-134.28056664 113.3530701 -135.87812653 112.21749892 -137.47851562 111.0859375 C-138.18943359 110.57804688 -138.90035156 110.07015625 -139.6328125 109.546875 C-140.26074707 109.10182617 -140.88868164 108.65677734 -141.53564453 108.19824219 C-143 107 -143 107 -144 105 C-107.7 105 -71.4 105 -34 105 C-33.01 101.37 -32.02 97.74 -31 94 C-30.38788863 91.99343546 -29.76022717 89.9914274 -29.10571289 87.99829102 C-28.76388977 86.952957 -28.42206665 85.90762299 -28.06988525 84.83061218 C-27.70779968 83.73279922 -27.34571411 82.63498627 -26.97265625 81.50390625 C-26.39436066 79.73990227 -26.39436066 79.73990227 -25.80438232 77.94026184 C-24.7721324 74.79380953 -23.73741618 71.64818331 -22.7013588 68.50298309 C-21.84524394 65.90260188 -20.9911939 63.30154444 -20.13711834 60.70049286 C-13.48606871 40.44661012 -6.78168395 20.21053568 0 0 Z " fill="#FBFBFC" transform="translate(2436,678)"/>
<path d="M0 0 C0.66 0 1.32 0 2 0 C2.24492187 0.80695313 2.48984375 1.61390625 2.7421875 2.4453125 C6.10084795 13.35516817 9.70337843 24.18058039 13.34521484 34.99853516 C15.24590294 40.66206699 17.11954096 46.32658737 18.85546875 52.04296875 C20.64157181 57.91248997 22.53712313 63.74226275 24.453125 69.5703125 C24.76060165 70.50702286 25.06807831 71.44373322 25.38487244 72.40882874 C26.66666355 76.31217784 27.94940488 80.2151948 29.23828125 84.11621094 C30.18887629 86.99545348 31.13394994 89.87645939 32.078125 92.7578125 C32.37180969 93.64211945 32.66549438 94.52642639 32.96807861 95.43753052 C33.36914825 96.66558914 33.36914825 96.66558914 33.77832031 97.91845703 C34.13328583 98.99548386 34.13328583 98.99548386 34.49542236 100.0942688 C35 102 35 102 35 105 C71.3 105 107.6 105 145 105 C139.37641723 110.62358277 139.37641723 110.62358277 136.20703125 112.875 C135.50392822 113.37829834 134.8008252 113.88159668 134.07641602 114.40014648 C133.32932373 114.92809814 132.58223145 115.4560498 131.8125 116 C130.19264523 117.15746377 128.57285535 118.31501836 126.953125 119.47265625 C125.7165918 120.35268311 125.7165918 120.35268311 124.45507812 121.25048828 C120.64665385 123.96440717 116.85377921 126.69970297 113.0625 129.4375 C112.32362549 129.97052734 111.58475098 130.50355469 110.82348633 131.05273438 C104.56139126 135.57742827 98.34281487 140.15984789 92.12988281 144.75170898 C85.83172794 149.40130558 79.49542544 153.99610381 73.13671875 158.5625 C72.44835938 159.0575 71.76 159.5525 71.05078125 160.0625 C70.3851416 160.54074219 69.71950195 161.01898438 69.03369141 161.51171875 C66.19855334 163.58650886 63.42278367 165.73725521 60.65307617 167.8984375 C59 169 59 169 57 169 C68.15876752 204.05824092 79.51242404 239.04827066 91 274 C87.63085929 274 87.05223052 273.57741537 84.4375 271.6484375 C83.73302734 271.13410156 83.02855469 270.61976563 82.30273438 270.08984375 C81.54283203 269.52394531 80.78292969 268.95804687 80 268.375 C79.20400391 267.79105469 78.40800781 267.20710938 77.58789062 266.60546875 C75.05345709 264.74384098 72.52642866 262.87247232 70 261 C68.40665449 259.82497214 66.81291252 258.65048168 65.21875 257.4765625 C62.84880961 255.73092301 60.4793054 253.9847165 58.11157227 252.23608398 C49.01433883 245.52077309 39.83642973 238.91818199 30.65771484 232.31494141 C29.08618359 231.18407491 27.51505451 230.0526493 25.94433594 228.9206543 C24.41635691 227.82002687 22.8870896 226.72118539 21.35644531 225.62426758 C17.97748931 223.19409907 14.63547485 220.74097496 11.37890625 218.1484375 C10.83347168 217.71885742 10.28803711 217.28927734 9.72607422 216.84667969 C8.30083959 215.71499545 6.88998291 214.56526743 5.48046875 213.4140625 C3.12357477 211.75274631 3.12357477 211.75274631 0.59570312 212.24267578 C-2.13383301 213.03904722 -3.75971325 213.98968469 -6.01171875 215.703125 C-6.7601001 216.26459229 -7.50848145 216.82605957 -8.27954102 217.40454102 C-9.07416748 218.01354248 -9.86879395 218.62254395 -10.6875 219.25 C-12.39781262 220.53598773 -14.10876522 221.8211247 -15.8203125 223.10546875 C-16.6855957 223.75821777 -17.55087891 224.4109668 -18.44238281 225.08349609 C-22.28030412 227.9593726 -26.16817728 230.76372396 -30.0625 233.5625 C-31.55469653 234.6380083 -33.04688402 235.71352915 -34.5390625 236.7890625 C-36.76903289 238.394446 -38.99926236 239.99946914 -41.22949219 241.60449219 C-51.42374155 248.94345945 -61.56723097 256.34671909 -71.671875 263.80859375 C-76.76181896 267.56593427 -81.87453797 271.29123871 -87 275 C-87.66 274.67 -88.32 274.34 -89 274 C-88.76577835 273.2892482 -88.5315567 272.5784964 -88.29023743 271.84620667 C-85.29419077 262.75277734 -82.30183748 253.65813699 -79.3125 244.5625 C-79.07420597 243.8374527 -78.83591194 243.1124054 -78.59039688 242.36538696 C-70.57056191 217.95913776 -62.67373629 193.51762013 -55 169 C-55.60183105 168.70971924 -56.20366211 168.41943848 -56.82373047 168.12036133 C-59.79389426 166.59129675 -62.428723 164.64510784 -65.125 162.6875 C-65.73118164 162.25091064 -66.33736328 161.81432129 -66.96191406 161.36450195 C-68.97660418 159.91241126 -70.98828375 158.45620717 -73 157 C-74.42950328 155.96849465 -75.85919459 154.93724984 -77.2890625 153.90625 C-80.31529109 151.72340755 -83.33986956 149.5383048 -86.36328125 147.3515625 C-89.39993186 145.15548737 -92.4389656 142.96278675 -95.48046875 140.7734375 C-104.83366517 134.03753742 -114.13770978 127.23863875 -123.40625 120.38671875 C-126.43830145 118.1466689 -129.47971305 115.92046064 -132.53125 113.70703125 C-133.23419189 113.1960791 -133.93713379 112.68512695 -134.66137695 112.15869141 C-135.9835074 111.19867718 -137.3074839 110.24119871 -138.63354492 109.28662109 C-140.10688477 108.21521312 -141.55646619 107.11124052 -143 106 C-143 105.67 -143 105.34 -143 105 C-106.7 105 -70.4 105 -33 105 C-32.34 102.03 -31.68 99.06 -31 96 C-30.49628342 94.22382453 -29.96631907 92.45463911 -29.39746094 90.69824219 C-29.0933429 89.75297668 -28.78922485 88.80771118 -28.47589111 87.83380127 C-28.1486908 86.8316156 -27.82149048 85.82942993 -27.484375 84.796875 C-27.13606628 83.71944031 -26.78775757 82.64200562 -26.42889404 81.53192139 C-25.291265 78.01952075 -24.14661796 74.50947592 -23 71 C-22.61126709 69.80898682 -22.22253418 68.61797363 -21.82202148 67.39086914 C-18.76468322 58.03086471 -15.69185987 48.67596221 -12.61602783 39.32202148 C-11.1645484 34.90783033 -9.71487073 30.49305016 -8.265625 26.078125 C-7.89576477 24.95496887 -7.52590454 23.83181274 -7.14483643 22.67462158 C-4.67323603 15.14318907 -2.30640311 7.58361809 0 0 Z " fill="#FCFBFC" transform="translate(2879,232)"/>
<path d="M0 0 C1.94714136 2.92071204 2.85487976 5.22914238 3.93603516 8.54345703 C4.3104776 9.68380402 4.68492004 10.824151 5.07070923 11.99905396 C5.6737941 13.85963943 5.6737941 13.85963943 6.2890625 15.7578125 C6.71506536 17.0613929 7.14145407 18.36484726 7.56820679 19.66818237 C8.69700947 23.119476 9.82015789 26.57258529 10.94226074 30.02606201 C12.05288741 33.4404497 13.16936482 36.85292244 14.28515625 40.265625 C16.24237397 46.25463142 18.18925937 52.24692824 20.13010025 58.24126053 C21.55200728 62.62943721 22.98971368 67.01222531 24.43261719 71.39355469 C25.17144492 73.6555268 25.9100635 75.91756724 26.6484375 78.1796875 C26.99000885 79.20724152 27.3315802 80.23479553 27.6835022 81.29348755 C27.99081268 82.24061615 28.29812317 83.18774475 28.61474609 84.16357422 C29.01842911 85.39102859 29.01842911 85.39102859 29.43026733 86.64328003 C30 89 30 89 30 94 C62.34 94 94.68 94 128 94 C122.37641723 99.62358277 122.37641723 99.62358277 119.20703125 101.875 C118.50392822 102.37829834 117.8008252 102.88159668 117.07641602 103.40014648 C116.32932373 103.92809814 115.58223145 104.4560498 114.8125 105 C113.19264523 106.15746377 111.57285535 107.31501836 109.953125 108.47265625 C109.12876953 109.05934082 108.30441406 109.64602539 107.45507812 110.25048828 C103.64665327 112.96440759 99.85383484 115.6997792 96.0625 118.4375 C95.32435059 118.96980225 94.58620117 119.50210449 93.82568359 120.05053711 C88.33479984 124.0168358 82.88226608 128.03321798 77.4375 132.0625 C68.72018045 138.51212627 59.88709314 144.78700019 51 151 C52.55033168 158.8029523 54.92172804 166.22206991 57.4296875 173.765625 C57.86606692 175.08911683 58.3020226 176.41274844 58.73757935 177.73651123 C59.87979128 181.204753 61.0269404 184.67133997 62.17541504 188.13751221 C64.00692036 193.66798077 65.83066927 199.20101213 67.65472794 204.73394012 C68.28461341 206.64230645 68.91666993 208.54995577 69.54879761 210.45758057 C73.32755184 221.89235052 76.91979623 233.35589637 80 245 C77.24678614 243.69302984 74.80366726 242.24417133 72.33984375 240.453125 C71.63859375 239.94523438 70.93734375 239.43734375 70.21484375 238.9140625 C69.08755859 238.09035156 69.08755859 238.09035156 67.9375 237.25 C67.14601563 236.67507813 66.35453125 236.10015625 65.5390625 235.5078125 C59.04120805 230.78023966 52.574866 226.00991993 46.11132812 221.2355957 C39.2822743 216.1954692 32.41136409 211.21555662 25.51953125 206.26171875 C22.33571506 203.97118842 19.16967572 201.65807637 16.01171875 199.33203125 C15.19388916 198.73269775 14.37605957 198.13336426 13.53344727 197.51586914 C11.96388138 196.3650663 10.39777508 195.20952538 8.83569336 194.04858398 C8.12936768 193.53239502 7.42304199 193.01620605 6.6953125 192.484375 C6.07672363 192.02772461 5.45813477 191.57107422 4.82080078 191.10058594 C2.80177372 189.88018181 1.35268118 189.24006951 -1 189 C-2.88835157 189.82348036 -2.88835157 189.82348036 -4.66015625 191.25390625 C-5.36140625 191.77146484 -6.06265625 192.28902344 -6.78515625 192.82226562 C-7.91244141 193.68368164 -7.91244141 193.68368164 -9.0625 194.5625 C-9.85398437 195.15095703 -10.64546875 195.73941406 -11.4609375 196.34570312 C-13.1367962 197.59270035 -14.80874899 198.84496145 -16.47705078 200.10205078 C-20.46155005 203.09948617 -24.48306405 206.04627291 -28.5 209 C-29.28826172 209.58201172 -30.07652344 210.16402344 -30.88867188 210.76367188 C-38.45391243 216.34945455 -46.07641976 221.85393281 -53.70898438 227.34716797 C-56.12757455 229.09203748 -58.54083998 230.84408159 -60.953125 232.59765625 C-61.76644287 233.18796631 -62.57976074 233.77827637 -63.41772461 234.38647461 C-64.97174906 235.51464344 -66.52471126 236.64427751 -68.07641602 237.77563477 C-71.63388112 240.35476639 -75.17632969 242.8214845 -79 245 C-77.5842077 236.08119326 -74.75811794 227.66983515 -71.9140625 219.1328125 C-71.4103333 217.60660156 -70.90711827 216.08022083 -70.40438843 214.55368042 C-69.08605473 210.55522408 -67.76073634 206.55911775 -66.43389893 202.56347656 C-65.09484547 198.52681591 -63.76259231 194.48791291 -62.4296875 190.44921875 C-60.03659489 183.20200077 -57.63930367 175.95619238 -55.23272705 168.71343994 C-54.42388024 166.27688753 -53.61744236 163.83953383 -52.81365967 161.40130615 C-52.455401 160.31738586 -52.09714233 159.23346558 -51.72802734 158.11669922 C-51.4166684 157.17172577 -51.10530945 156.22675232 -50.78451538 155.25314331 C-50 153 -50 153 -49 151 C-49.589021 150.71801758 -50.17804199 150.43603516 -50.78491211 150.14550781 C-52.80371049 149.10150891 -54.58841867 147.98171394 -56.44140625 146.671875 C-57.0974585 146.20918213 -57.75351074 145.74648926 -58.42944336 145.26977539 C-59.13335205 144.76824951 -59.83726074 144.26672363 -60.5625 143.75 C-61.30701416 143.22204834 -62.05152832 142.69409668 -62.81860352 142.15014648 C-69.21079712 137.59969244 -75.53053348 132.95338501 -81.83789062 128.28637695 C-87.22232887 124.30327047 -92.6301663 120.35501983 -98.0625 116.4375 C-98.78945068 115.91244873 -99.51640137 115.38739746 -100.26538086 114.84643555 C-104.18641674 112.01744351 -108.11744256 109.20324979 -112.05859375 106.40234375 C-112.88544678 105.81203369 -113.7122998 105.22172363 -114.56420898 104.61352539 C-116.15308781 103.47947647 -117.74492136 102.3495526 -119.34008789 101.22436523 C-120.05285889 100.71462158 -120.76562988 100.20487793 -121.5 99.6796875 C-122.1290625 99.23351074 -122.758125 98.78733398 -123.40625 98.32763672 C-125 97 -125 97 -127 94 C-94.99 94 -62.98 94 -30 94 C-29.34 91.03 -28.68 88.06 -28 85 C-27.52211425 83.30084333 -27.01988144 81.60806647 -26.47875977 79.92797852 C-26.19371582 79.03623932 -25.90867187 78.14450012 -25.61499023 77.22573853 C-25.31020752 76.28628387 -25.0054248 75.34682922 -24.69140625 74.37890625 C-24.20704102 72.8694191 -24.20704102 72.8694191 -23.71289062 71.32943726 C-22.66671077 68.07250529 -21.61478655 64.81746354 -20.5625 61.5625 C-19.84011922 59.31918651 -19.11803449 57.07577767 -18.39624023 54.83227539 C-16.95133078 50.34350112 -15.50398201 45.85552436 -14.0546875 41.36816406 C-12.47783799 36.48444321 -10.90751732 31.59867914 -9.34217834 26.71125793 C-8.31939057 23.518301 -7.29407438 20.32616047 -6.26803589 17.13424683 C-5.79899758 15.67385561 -5.33083246 14.21318365 -4.86355591 12.75222778 C-4.22576229 10.75964473 -3.58415318 8.76833352 -2.94140625 6.77734375 C-2.58763916 5.67640381 -2.23387207 4.57546387 -1.86938477 3.44116211 C-1 1 -1 1 0 0 Z " fill="#FBFAFB" transform="translate(3260,579)"/>
<path d="M0 0 C0.66 0 1.32 0 2 0 C2.24492187 0.80695313 2.48984375 1.61390625 2.7421875 2.4453125 C6.10084795 13.35516817 9.70337843 24.18058039 13.34521484 34.99853516 C15.68814434 41.97982567 17.93440945 48.97918268 20.07788086 56.02416992 C21.62483027 61.01643001 23.33662975 65.95192973 25.0625 70.88476562 C25.31515625 71.62533203 25.5678125 72.36589844 25.828125 73.12890625 C26.0540332 73.77931885 26.27994141 74.42973145 26.51269531 75.09985352 C27 77 27 77 27 81 C55.05 81 83.1 81 112 81 C108.75389708 84.24610292 105.60106929 86.84274867 101.875 89.4375 C100.61679563 90.32496552 99.35900329 91.2130154 98.1015625 92.1015625 C97.43543945 92.57110352 96.76931641 93.04064453 96.08300781 93.52441406 C92.45385882 96.09527394 88.85286617 98.70499796 85.25 101.3125 C83.72140117 102.41803374 82.19275482 103.52350178 80.6640625 104.62890625 C79.51405762 105.46059326 79.51405762 105.46059326 78.34082031 106.30908203 C75.98690487 108.00945942 73.63053624 109.70638246 71.2734375 111.40234375 C69.72388389 112.51812578 68.17440365 113.63400973 66.625 114.75 C65.87895508 115.28689453 65.13291016 115.82378906 64.36425781 116.37695312 C58.89891971 120.32131165 53.51837507 124.36425706 48.1875 128.48828125 C46 130 46 130 44 130 C44.2962326 130.89456406 44.59246521 131.78912811 44.89767456 132.71080017 C47.69770621 141.16826993 50.49309111 149.62726324 53.28400993 158.08774471 C54.71876882 162.4366244 56.15512232 166.78496338 57.59521484 171.13208008 C58.98660992 175.33239836 60.37369222 179.53411878 61.75787735 183.73681831 C62.28499189 185.33476305 62.81362178 186.93220879 63.34383774 188.52912712 C65.91823785 196.28584708 68.460712 203.95662201 70 212 C64.11215707 208.12628357 58.3264375 204.14273388 52.625 200 C51.85607422 199.443125 51.08714844 198.88625 50.29492188 198.3125 C43.88466457 193.6618194 37.50997692 188.96339079 31.14086914 184.2565918 C24.72122773 179.51729037 18.26215071 174.8343756 11.78515625 170.17382812 C8.50147201 167.81066199 5.22158806 165.44773401 2 163 C-0.64398662 164.26575751 -3.04867577 165.63675287 -5.44140625 167.328125 C-6.09778076 167.79105957 -6.75415527 168.25399414 -7.43041992 168.73095703 C-8.13400635 169.23224121 -8.83759277 169.73352539 -9.5625 170.25 C-10.30411377 170.77577637 -11.04572754 171.30155273 -11.80981445 171.84326172 C-18.29864297 176.46178482 -24.71118932 181.18149729 -31.11254883 185.92016602 C-36.33952791 189.78726321 -41.60176134 193.59769762 -46.90356445 197.36132812 C-53.65864559 202.16369839 -60.32724484 207.08421678 -67 212 C-68.43889799 209.12220401 -67.47309022 207.776401 -66.47265625 204.74609375 C-66.09995605 203.60406494 -65.72725586 202.46203613 -65.34326172 201.28540039 C-64.916432 200.00273669 -64.48950828 198.72010427 -64.0625 197.4375 C-63.62444117 196.10367101 -63.18712582 194.76959766 -62.75048828 193.43530273 C-61.75580583 190.39932653 -60.75675215 187.36482778 -59.75537109 184.33105469 C-57.74635846 178.23820205 -55.75787092 172.138687 -53.76953125 166.0390625 C-49.85227594 154.02410265 -45.92808928 142.01142189 -42 130 C-42.93699989 129.53923065 -42.93699989 129.53923065 -43.89292908 129.06915283 C-45.88140354 128.06017725 -47.62289556 126.95734293 -49.44140625 125.671875 C-50.0974585 125.20918213 -50.75351074 124.74648926 -51.42944336 124.26977539 C-52.13335205 123.76824951 -52.83726074 123.26672363 -53.5625 122.75 C-54.30701416 122.22204834 -55.05152832 121.69409668 -55.81860352 121.15014648 C-62.20483191 116.60393893 -68.51861869 111.96191004 -74.8203125 107.29956055 C-80.37815972 103.18850178 -85.95829366 99.11014552 -91.5625 95.0625 C-92.30862549 94.52343018 -93.05475098 93.98436035 -93.82348633 93.42895508 C-98.65535268 89.94690553 -103.52041808 86.52146649 -108.4453125 83.171875 C-108.95835937 82.78515625 -109.47140625 82.3984375 -110 82 C-110 81.67 -110 81.34 -110 81 C-81.95 81 -53.9 81 -25 81 C-24.67 78.69 -24.34 76.38 -24 74 C-23.49775956 72.27725785 -22.94206192 70.56898196 -22.328125 68.8828125 C-21.99619141 67.95533203 -21.66425781 67.02785156 -21.32226562 66.07226562 C-20.96841797 65.09966797 -20.61457031 64.12707031 -20.25 63.125 C-17.81507074 56.29426924 -15.46041596 49.48258585 -13.5 42.5 C-11.28657515 34.64031908 -8.61172752 26.96326386 -5.85351562 19.27929688 C-3.59141676 12.92302304 -1.6858096 6.53271006 0 0 Z " fill="#C8112F" transform="translate(2879,1419)"/>
<path d="M0 0 C2.49005667 2.49005667 2.86585875 4.40475756 3.84375 7.78125 C5.91136729 14.74222822 8.18014335 21.61960604 10.5 28.5 C13.14871044 36.35573166 15.70880407 44.22619838 18.125 52.15673828 C19.41526502 56.3493796 20.83736036 60.48925798 22.265625 64.63671875 C23 67 23 67 23 69 C47.09 69 71.18 69 96 69 C93.35897907 71.64102093 91.25324594 73.67556459 88.3046875 75.77734375 C87.59828125 76.28394531 86.891875 76.79054688 86.1640625 77.3125 C85.40867187 77.84875 84.65328125 78.385 83.875 78.9375 C82.2473258 80.10276676 80.61972362 81.26813413 78.9921875 82.43359375 C78.16170898 83.02640137 77.33123047 83.61920898 76.47558594 84.22998047 C72.6400451 86.97235434 68.820408 89.73660523 65 92.5 C63.52352364 93.56652551 62.04696054 94.63293094 60.5703125 95.69921875 C59.83071289 96.23337402 59.09111328 96.7675293 58.32910156 97.31787109 C56.70605469 98.49007161 55.08300781 99.66227214 53.45996094 100.83447266 C52.6043457 101.45241699 51.74873047 102.07036133 50.8671875 102.70703125 C50.031875 103.3103125 49.1965625 103.91359375 48.3359375 104.53515625 C47.52382812 105.12167969 46.71171875 105.70820312 45.875 106.3125 C41.9375 109.15625 41.9375 109.15625 38 112 C39.24516386 116.06399678 40.49661678 120.12603089 41.75 124.1875 C41.9434198 124.815495 42.1368396 125.44348999 42.33612061 126.09051514 C44.91115087 134.44066677 47.56278568 142.76166815 50.3046875 151.05859375 C50.71877869 152.31602638 50.71877869 152.31602638 51.14123535 153.59886169 C52.50910859 157.75205403 53.88565235 161.90200764 55.27636719 166.04760742 C55.78100566 167.57587488 56.28525643 169.10427043 56.7890625 170.6328125 C57.02817352 171.334702 57.26728455 172.03659149 57.51364136 172.75975037 C59.11357486 177.65927542 59.11357486 177.65927542 58 181 C50.42299668 175.60351693 42.85794993 170.19053158 35.3125 164.75 C34.56653564 164.2122998 33.82057129 163.67459961 33.05200195 163.12060547 C28.97317674 160.17298483 24.91375065 157.20155022 20.875 154.19921875 C20.02897217 153.57112305 19.18294434 152.94302734 18.3112793 152.29589844 C16.69036375 151.09038704 15.07188122 149.88159466 13.45629883 148.66894531 C9.11123838 145.43738619 4.762619 142.5800148 0 140 C-8.97267632 146.27283134 -17.88691809 152.61233711 -26.6875 159.125 C-37.30091932 166.97731814 -47.93058792 174.7960969 -59 182 C-57.60390835 176.53197438 -56.12110235 171.15736841 -54.125 165.875 C-52.44441534 161.38922892 -51.05784671 156.8552155 -49.75 152.25 C-47.42451765 144.08131007 -44.65329142 136.09268439 -41.76660156 128.10644531 C-39.74536893 122.4426387 -38.17860347 116.89906148 -37 111 C-37.589021 110.71801758 -38.17804199 110.43603516 -38.78491211 110.14550781 C-40.80371049 109.10150891 -42.58841867 107.98171394 -44.44140625 106.671875 C-45.0974585 106.20918213 -45.75351074 105.74648926 -46.42944336 105.26977539 C-47.13335205 104.76824951 -47.83726074 104.26672363 -48.5625 103.75 C-49.30701416 103.22204834 -50.05152832 102.69409668 -50.81860352 102.15014648 C-57.19785402 97.60890633 -63.50742088 92.97531045 -69.79833984 88.31274414 C-73.91285362 85.26515993 -78.04171366 82.24114292 -82.203125 79.2578125 C-83.0391626 78.65831787 -83.8752002 78.05882324 -84.73657227 77.44116211 C-86.34442732 76.29072652 -87.95422951 75.14300637 -89.56616211 73.99829102 C-90.2803833 73.48709717 -90.99460449 72.97590332 -91.73046875 72.44921875 C-92.36364014 71.99893311 -92.99681152 71.54864746 -93.64916992 71.0847168 C-94.31783081 70.54778198 -94.31783081 70.54778198 -95 70 C-95 69.67 -95 69.34 -95 69 C-70.91 69 -46.82 69 -22 69 C-21.34 66.03 -20.68 63.06 -20 60 C-19.52221403 58.43542439 -19.01375938 56.87915554 -18.44921875 55.34375 C-18.16570557 54.55830811 -17.88219238 53.77286621 -17.59008789 52.96362305 C-17.14330688 51.74412964 -17.14330688 51.74412964 -16.6875 50.5 C-14.45403387 44.27380312 -12.35703182 38.05422045 -10.5625 31.6875 C-7.53119407 20.96425528 -3.7329867 10.49493802 0 0 Z " fill="#C8122F" transform="translate(2436,730)"/>
<path d="M0 0 C0.66 0 1.32 0 2 0 C2.58394531 1.86011719 2.58394531 1.86011719 3.1796875 3.7578125 C7.14072834 16.31659231 11.24547536 28.82312398 15.44677734 41.30322266 C17.79463304 48.29797389 20.05287369 55.31070017 22.1965332 62.37084961 C22.77237592 64.25515535 23.37692673 66.1307802 24 68 C47.76 68.33 71.52 68.66 96 69 C90.38095238 74.61904762 90.38095238 74.61904762 87.4609375 76.62109375 C86.80786621 77.07427979 86.15479492 77.52746582 85.48193359 77.99438477 C84.43900146 78.70872681 84.43900146 78.70872681 83.375 79.4375 C76.9723568 83.88886812 70.6437962 88.4244444 64.375 93.0625 C63.58665771 93.64459229 62.79831543 94.22668457 61.98608398 94.82641602 C58.16217712 97.65240438 54.34540813 100.48766342 50.53515625 103.33203125 C49.16927699 104.34636246 47.80339189 105.36068581 46.4375 106.375 C45.81214355 106.84558838 45.18678711 107.31617676 44.54248047 107.80102539 C40.22571861 111 40.22571861 111 38 111 C38.28665527 111.8521106 38.28665527 111.8521106 38.57910156 112.72143555 C39.4710975 115.37622369 40.36055043 118.0318577 41.25 120.6875 C41.55035156 121.58017578 41.85070313 122.47285156 42.16015625 123.39257812 C43.79429111 128.2775983 45.37083761 133.17369413 46.87109375 138.1015625 C48.45867924 143.30308531 50.1263743 148.47312282 51.83203125 153.63671875 C52.32492336 155.134748 52.8177616 156.63279498 53.31054688 158.13085938 C54.06853639 160.43410543 54.82882362 162.73648103 55.59545898 165.03686523 C56.34778134 167.2971392 57.09073854 169.5603075 57.83203125 171.82421875 C58.06525589 172.51682297 58.29848053 173.20942719 58.53877258 173.92301941 C60.11372775 178.77254449 60.11372775 178.77254449 59 181 C57.8984375 180.20442708 56.796875 179.40885417 55.6953125 178.61328125 C54.97609619 178.09386963 54.25687988 177.57445801 53.51586914 177.03930664 C51.89778232 175.87064248 50.27978353 174.70185644 48.66186523 173.53295898 C44.59818606 170.59731798 40.53347686 167.66314716 36.46484375 164.734375 C34.99737336 163.67711453 33.52992532 162.61982303 32.0625 161.5625 C31.33417969 161.03857666 30.60585937 160.51465332 29.85546875 159.97485352 C25.80505034 157.05343613 21.78247632 154.09920948 17.78515625 151.10546875 C16.9233374 150.462146 16.06151855 149.81882324 15.17358398 149.15600586 C13.50883239 147.91099047 11.84799594 146.660718 10.19165039 145.40454102 C9.06424438 144.56234009 9.06424438 144.56234009 7.9140625 143.703125 C7.2535791 143.20458008 6.5930957 142.70603516 5.91259766 142.19238281 C3.87846745 140.92423219 2.37989302 140.28214606 0 140 C-2.22053931 141.28557539 -4.10649292 142.56960113 -6.125 144.125 C-7.38389634 145.06018969 -8.64302208 145.99507064 -9.90234375 146.9296875 C-10.90177002 147.68137207 -10.90177002 147.68137207 -11.92138672 148.44824219 C-14.73845565 150.55128308 -17.59469192 152.59756186 -20.45141602 154.64624023 C-26.04100848 158.65519677 -31.60458344 162.69700714 -37.125 166.80078125 C-37.97102783 167.42887695 -38.81705566 168.05697266 -39.6887207 168.70410156 C-41.30963625 169.90961296 -42.92811878 171.11840534 -44.54370117 172.33105469 C-48.88876162 175.56261381 -53.237381 178.4199852 -58 181 C-56.02742449 172.24708263 -53.34119506 163.83454818 -50.35742188 155.38772583 C-46.6043975 144.7540004 -42.99070574 134.1132178 -39.92578125 123.2578125 C-38.7502602 119.12116881 -37.40392594 115.06399613 -36 111 C-36.53367187 110.75894531 -37.06734375 110.51789063 -37.6171875 110.26953125 C-40.64076958 108.65860637 -43.3589622 106.69586511 -46.125 104.6875 C-46.73190674 104.25018555 -47.33881348 103.81287109 -47.96411133 103.36230469 C-49.28410516 102.41059229 -50.60316081 101.45757762 -51.92138672 100.50341797 C-54.0293774 98.97875193 -56.14120418 97.45953566 -58.25390625 95.94140625 C-66.34248063 90.12356102 -74.402137 84.26611421 -82.4375 78.375 C-83.24856201 77.78299805 -84.05962402 77.19099609 -84.89526367 76.58105469 C-86.02798706 75.74815918 -86.02798706 75.74815918 -87.18359375 74.8984375 C-88.18217407 74.16633057 -88.18217407 74.16633057 -89.20092773 73.41943359 C-91 72 -91 72 -94 69 C-58.36 68.505 -58.36 68.505 -22 68 C-19.48375 60.306875 -16.9675 52.61375 -14.375 44.6875 C-13.20396729 41.10974731 -13.20396729 41.10974731 -12.00927734 37.4597168 C-7.93382623 24.99544351 -3.91655825 12.51514117 0 0 Z " fill="#C8112F" transform="translate(2879,284)"/>
<path d="M0 0 C1.86325672 2.79488508 2.7533892 4.91033261 3.78759766 8.06640625 C4.29790024 9.6131604 4.29790024 9.6131604 4.81851196 11.19116211 C5.36080948 12.85997437 5.36080948 12.85997437 5.9140625 14.5625 C6.4758168 16.27675171 6.4758168 16.27675171 7.04891968 18.02563477 C7.8395603 20.44245855 8.62788126 22.86004224 9.4140625 25.27832031 C10.62085757 28.9872687 11.83724754 32.6929715 13.0546875 36.3984375 C13.82089136 38.7446027 14.58653536 41.09095083 15.3515625 43.4375 C15.71714264 44.5500415 16.08272278 45.66258301 16.4593811 46.80883789 C16.7932785 47.84000732 17.1271759 48.87117676 17.47119141 49.93359375 C17.76716217 50.84165771 18.06313293 51.74972168 18.36807251 52.68530273 C19 55 19 55 19 58 C38.8 58 58.6 58 79 58 C76.35897907 60.64102093 74.25324594 62.67556459 71.3046875 64.77734375 C70.59739502 65.28458984 69.89010254 65.79183594 69.16137695 66.31445312 C68.40687256 66.85005859 67.65236816 67.38566406 66.875 67.9375 C65.26163771 69.09233471 63.64835896 70.24728613 62.03515625 71.40234375 C60.79209717 72.28962158 60.79209717 72.28962158 59.52392578 73.19482422 C55.44213396 76.11422534 51.37812081 79.05814365 47.3125 82 C42.21934013 85.68227017 37.11737326 89.3514403 32 93 C33.9207459 100.27390555 36.04678615 107.44577239 38.390625 114.59375 C39.02381669 116.54935643 39.65661834 118.50508919 40.2890625 120.4609375 C41.27495095 123.50166667 42.26356794 126.54141308 43.25878906 129.57910156 C44.22738197 132.53979563 45.18487949 135.50388795 46.140625 138.46875 C46.44260803 139.38120483 46.74459106 140.29365967 47.0557251 141.23376465 C47.32640808 142.07894653 47.59709106 142.92412842 47.87597656 143.79492188 C48.11785706 144.53673706 48.35973755 145.27855225 48.60894775 146.04284668 C49 148 49 148 48 151 C47.00742188 150.24976563 46.01484375 149.49953125 44.9921875 148.7265625 C37.83175722 143.32782539 30.65232463 137.97152763 23.31445312 132.81567383 C20.05097426 130.50993484 16.86128624 128.13440161 13.7109375 125.67578125 C12.628125 124.83756836 12.628125 124.83756836 11.5234375 123.98242188 C10.11662541 122.88894521 8.71779373 121.78510451 7.328125 120.66992188 C6.69132812 120.17685547 6.05453125 119.68378906 5.3984375 119.17578125 C4.55804932 118.50929565 4.55804932 118.50929565 3.70068359 117.8293457 C2.01514851 116.82141075 2.01514851 116.82141075 0.01855469 117.20874023 C-2.17100042 118.06703101 -3.80370499 119.0879656 -5.6953125 120.484375 C-6.40244385 121.00112793 -7.1095752 121.51788086 -7.83813477 122.05029297 C-8.59280029 122.61119629 -9.34746582 123.17209961 -10.125 123.75 C-11.74071264 124.93513142 -13.3566033 126.12002017 -14.97265625 127.3046875 C-16.21619873 128.22072754 -16.21619873 128.22072754 -17.48486328 129.15527344 C-20.7212155 131.52897538 -23.98107976 133.86903727 -27.24169922 136.20922852 C-33.42842801 140.64979769 -39.57541824 145.09652328 -45.46875 149.92578125 C-47 151 -47 151 -49 151 C-47.11001585 143.80682644 -44.99387508 136.73891101 -42.609375 129.6953125 C-41.97602281 127.79445057 -41.343226 125.89340351 -40.7109375 123.9921875 C-39.72656551 121.04104621 -38.73859459 118.09130271 -37.74121094 115.14453125 C-36.76976191 112.26911811 -35.81339313 109.38904803 -34.859375 106.5078125 C-34.55739197 105.62755402 -34.25540894 104.74729553 -33.9442749 103.84036255 C-31.87956816 97.95473571 -31.87956816 97.95473571 -33 92 C-34.55084912 90.26999452 -34.55084912 90.26999452 -36.62109375 88.90625 C-37.38317139 88.35710937 -38.14524902 87.80796875 -38.93041992 87.2421875 C-39.75775635 86.66726563 -40.58509277 86.09234375 -41.4375 85.5 C-42.28481689 84.89414062 -43.13213379 84.28828125 -44.00512695 83.6640625 C-45.77736802 82.39796494 -47.5537406 81.13763262 -49.33398438 79.8828125 C-52.7018969 77.50430139 -56.0421574 75.08884667 -59.38110352 72.66992188 C-60.87191322 71.59051694 -62.364473 70.51352317 -63.85913086 69.43945312 C-67.4271923 66.87541691 -70.98364244 64.29575168 -74.51953125 61.6875 C-75.18702393 61.19636719 -75.8545166 60.70523438 -76.54223633 60.19921875 C-77.02329834 59.80347656 -77.50436035 59.40773438 -78 59 C-78 58.67 -78 58.34 -78 58 C-58.53 57.67 -39.06 57.34 -19 57 C-16.7725 50.173125 -14.545 43.34625 -12.25 36.3125 C-11.55551758 34.18594971 -10.86103516 32.05939941 -10.14550781 29.8684082 C-9.5811217 28.13761683 -9.01698302 26.40674474 -8.453125 24.67578125 C-8.15263245 23.75388504 -7.85213989 22.83198883 -7.5425415 21.88215637 C-5.52190239 15.66274543 -3.57457551 9.42750267 -1.71777344 3.15698242 C-1 1 -1 1 0 0 Z " fill="#C8122F" transform="translate(3260,631)"/>
</svg>
